<svg xmlns="http://www.w3.org/2000/svg" version="1.1" xmlns:xlink="http://www.w3.org/1999/xlink" width="2000" height="1500" viewBox="0 0 2000 1500"><rect width="2000" height="1500" x="0" y="0" id="background" stroke="transparent" fill="#000000"></rect><svg xml:space="preserve" width="1500" height="1125" data-version="2" data-id="lg_lfVdbCoU9rjPMAUhXA" viewBox="0 0 552 394" x="250" y="187.5"><rect width="100%" height="100%" fill="transparent"></rect><circle r="10.2" fill="#2c106a" transform="translate(86.03 289.4)scale(2.159)"></circle><circle r="2" fill="#2c106a" transform="translate(86.03 251.84)scale(2.159)"></circle><circle r="2" fill="#2c106a" transform="translate(123.6 214.27)scale(2.159)"></circle><circle r="2" fill="#2c106a" transform="translate(123.6 289.4)scale(2.159)"></circle><circle r="10.2" fill="#2c106a" transform="translate(123.6 251.84)scale(2.159)"></circle><circle r="10.2" fill="#2c106a" transform="translate(86.03 214.27)scale(2.159)"></circle><circle r="2" fill="#2c106a" transform="translate(86.03 176.7)scale(2.159)"></circle><circle r="2" fill="#2c106a" transform="translate(123.6 139.14)scale(2.159)"></circle><circle r="10.2" fill="#2c106a" transform="translate(86.03 139.14)scale(2.159)"></circle><circle r="10.2" fill="#2c106a" transform="translate(123.6 176.7)scale(2.159)"></circle><circle r="10.2" fill="#2c106a" transform="translate(161.17 289.4)scale(2.159)"></circle><circle r="2" fill="#2c106a" transform="translate(161.17 251.84)scale(2.159)"></circle><circle r="2" fill="#2c106a" transform="translate(198.74 214.27)scale(2.159)"></circle><circle r="2" fill="#2c106a" transform="translate(198.74 289.4)scale(2.159)"></circle><circle r="10.2" fill="#2c106a" transform="translate(198.74 251.84)scale(2.159)"></circle><circle r="10.2" fill="#2c106a" transform="translate(161.17 214.27)scale(2.159)"></circle><circle r="2" fill="#2c106a" transform="translate(161.17 176.7)scale(2.159)"></circle><circle r="2" fill="#2c106a" transform="translate(198.74 139.14)scale(2.159)"></circle><circle r="10.2" fill="#2c106a" transform="translate(161.17 139.14)scale(2.159)"></circle><circle r="10.2" fill="#2c106a" transform="translate(236.3 289.4)scale(2.159)"></circle><circle r="2" fill="#2c106a" transform="translate(236.3 251.84)scale(2.159)"></circle><circle r="10.2" fill="#2c106a" transform="translate(236.3 214.27)scale(2.159)"></circle><circle r="2" fill="#2c106a" transform="translate(236.3 176.7)scale(2.159)"></circle><circle r="10.2" fill="#2c106a" transform="translate(236.3 139.14)scale(2.159)"></circle><circle r="10.2" fill="#2c106a" transform="translate(198.74 176.7)scale(2.159)"></circle><circle r="10.2" fill="#2c106a" transform="translate(123.46 176.33)scale(2.159)"></circle><circle r="2" fill="#2c106a" transform="translate(123.46 138.76)scale(2.159)"></circle><circle r="2" fill="#2c106a" transform="translate(161.03 101.2)scale(2.159)"></circle><circle r="2" fill="#2c106a" transform="translate(161.03 176.33)scale(2.159)"></circle><circle r="10.2" fill="#2c106a" transform="translate(161.03 138.76)scale(2.159)"></circle><circle r="10.2" fill="#2c106a" transform="translate(123.46 101.2)scale(2.159)"></circle><circle r="2" fill="#2c106a" transform="translate(123.46 63.63)scale(2.159)"></circle><circle r="2" fill="#2c106a" transform="translate(161.03 26.06)scale(2.159)"></circle><circle r="10.2" fill="#2c106a" transform="translate(123.46 26.06)scale(2.159)"></circle><circle r="10.2" fill="#2c106a" transform="translate(161.03 63.63)scale(2.159)"></circle><circle r="10.2" fill="#2c106a" transform="translate(198.6 176.33)scale(2.159)"></circle><circle r="2" fill="#2c106a" transform="translate(198.6 138.76)scale(2.159)"></circle><circle r="2" fill="#2c106a" transform="translate(236.16 101.2)scale(2.159)"></circle><circle r="2" fill="#2c106a" transform="translate(236.16 176.33)scale(2.159)"></circle><circle r="10.2" fill="#2c106a" transform="translate(236.16 138.76)scale(2.159)"></circle><circle r="10.2" fill="#2c106a" transform="translate(198.6 101.2)scale(2.159)"></circle><circle r="2" fill="#2c106a" transform="translate(198.6 63.63)scale(2.159)"></circle><circle r="2" fill="#2c106a" transform="translate(236.16 26.06)scale(2.159)"></circle><circle r="10.2" fill="#2c106a" transform="translate(198.6 26.06)scale(2.159)"></circle><circle r="10.2" fill="#2c106a" transform="translate(273.73 176.33)scale(2.159)"></circle><circle r="2" fill="#2c106a" transform="translate(273.73 138.76)scale(2.159)"></circle><circle r="10.2" fill="#2c106a" transform="translate(273.73 101.2)scale(2.159)"></circle><circle r="2" fill="#2c106a" transform="translate(273.73 63.63)scale(2.159)"></circle><circle r="10.2" fill="#2c106a" transform="translate(273.73 26.06)scale(2.159)"></circle><circle r="10.2" fill="#2c106a" transform="translate(236.16 63.63)scale(2.159)"></circle><circle r="10.2" fill="#2c106a" transform="translate(236.46 289.48)scale(2.159)"></circle><circle r="2" fill="#2c106a" transform="translate(236.46 251.91)scale(2.159)"></circle><circle r="2" fill="#2c106a" transform="translate(274.02 214.34)scale(2.159)"></circle><circle r="2" fill="#2c106a" transform="translate(274.02 289.48)scale(2.159)"></circle><circle r="10.2" fill="#2c106a" transform="translate(274.02 251.91)scale(2.159)"></circle><circle r="10.2" fill="#2c106a" transform="translate(236.46 214.34)scale(2.159)"></circle><circle r="2" fill="#2c106a" transform="translate(236.46 176.78)scale(2.159)"></circle><circle r="2" fill="#2c106a" transform="translate(274.02 139.2)scale(2.159)"></circle><circle r="10.2" fill="#2c106a" transform="translate(236.46 139.2)scale(2.159)"></circle><circle r="10.2" fill="#2c106a" transform="translate(274.02 176.78)scale(2.159)"></circle><circle r="10.2" fill="#2c106a" transform="translate(311.59 289.48)scale(2.159)"></circle><circle r="2" fill="#2c106a" transform="translate(311.59 251.91)scale(2.159)"></circle><circle r="2" fill="#2c106a" transform="translate(349.16 214.34)scale(2.159)"></circle><circle r="2" fill="#2c106a" transform="translate(349.16 289.48)scale(2.159)"></circle><circle r="10.2" fill="#2c106a" transform="translate(349.16 251.91)scale(2.159)"></circle><circle r="10.2" fill="#2c106a" transform="translate(311.59 214.34)scale(2.159)"></circle><circle r="2" fill="#2c106a" transform="translate(311.59 176.78)scale(2.159)"></circle><circle r="2" fill="#2c106a" transform="translate(349.16 139.2)scale(2.159)"></circle><circle r="10.2" fill="#2c106a" transform="translate(311.59 139.2)scale(2.159)"></circle><circle r="10.2" fill="#2c106a" transform="translate(386.73 289.48)scale(2.159)"></circle><circle r="2" fill="#2c106a" transform="translate(386.73 251.91)scale(2.159)"></circle><circle r="10.2" fill="#2c106a" transform="translate(386.73 214.34)scale(2.159)"></circle><circle r="2" fill="#2c106a" transform="translate(386.73 176.78)scale(2.159)"></circle><circle r="10.2" fill="#2c106a" transform="translate(386.73 139.2)scale(2.159)"></circle><circle r="10.2" fill="#2c106a" transform="translate(349.16 176.78)scale(2.159)"></circle><circle r="10.2" fill="#2c106a" transform="translate(312.43 365.92)scale(2.171)"></circle><circle r="2" fill="#2c106a" transform="translate(312.43 328.15)scale(2.171)"></circle><circle r="2" fill="#2c106a" transform="translate(350.2 290.37)scale(2.171)"></circle><circle r="2" fill="#2c106a" transform="translate(350.2 365.92)scale(2.171)"></circle><circle r="10.2" fill="#2c106a" transform="translate(350.2 328.15)scale(2.171)"></circle><circle r="10.2" fill="#2c106a" transform="translate(312.43 290.37)scale(2.171)"></circle><circle r="2" fill="#2c106a" transform="translate(312.43 252.6)scale(2.171)"></circle><circle r="2" fill="#2c106a" transform="translate(350.2 214.82)scale(2.171)"></circle><circle r="10.2" fill="#2c106a" transform="translate(312.43 214.82)scale(2.171)"></circle><circle r="10.2" fill="#2c106a" transform="translate(350.2 252.6)scale(2.171)"></circle><circle r="10.2" fill="#2c106a" transform="translate(387.98 365.92)scale(2.171)"></circle><circle r="2" fill="#2c106a" transform="translate(387.98 328.15)scale(2.171)"></circle><circle r="2" fill="#2c106a" transform="translate(425.75 290.37)scale(2.171)"></circle><circle r="2" fill="#2c106a" transform="translate(425.75 365.92)scale(2.171)"></circle><circle r="10.2" fill="#2c106a" transform="translate(425.75 328.15)scale(2.171)"></circle><circle r="10.2" fill="#2c106a" transform="translate(387.98 290.37)scale(2.171)"></circle><circle r="2" fill="#2c106a" transform="translate(387.98 252.6)scale(2.171)"></circle><circle r="2" fill="#2c106a" transform="translate(425.75 214.82)scale(2.171)"></circle><circle r="10.2" fill="#2c106a" transform="translate(387.98 214.82)scale(2.171)"></circle><circle r="10.2" fill="#2c106a" transform="translate(463.52 365.92)scale(2.171)"></circle><circle r="2" fill="#2c106a" transform="translate(463.52 328.15)scale(2.171)"></circle><circle r="10.2" fill="#2c106a" transform="translate(463.52 290.37)scale(2.171)"></circle><circle r="2" fill="#2c106a" transform="translate(463.52 252.6)scale(2.171)"></circle><circle r="10.2" fill="#2c106a" transform="translate(463.52 214.82)scale(2.171)"></circle><circle r="10.2" fill="#2c106a" transform="translate(425.75 252.6)scale(2.171)"></circle><g transform="translate(276 196.78)"><filter id="a" width="140%" height="140%" x="-20%" y="-20%"><feGaussianBlur in="SourceAlpha"></feGaussianBlur><feOffset result="oBlur"></feOffset><feFlood flood-color="#F75CFF" flood-opacity="1"></feFlood><feComposite in2="oBlur" operator="in"></feComposite><feMerge><feMergeNode></feMergeNode><feMergeNode in="SourceGraphic"></feMergeNode></feMerge></filter><g filter="url(#a)"><path fill="#fff" d="M-207.59-57.735h36.99l-33.34 38.2 34.02 54.68h-35.24l-19.3-34.02-16.2 13.23v20.79h-29.84v-92.88h29.84v39.69Z"></path><rect width="100.58" height="92.88" x="-50.29" y="-46.44" fill="none" rx="0" ry="0" transform="translate(-219.71 -10.8)"></rect><path fill="#fff" d="m-111.74 35.145-1.75-10.8q-4.19 5.8-11.01 9.11-6.81 3.31-14.37 3.31-12.42 0-18.63-6.89-6.21-6.88-6.21-19.84v-46.17h26.86v42.93q0 4.59 2.36 7.35 2.37 2.77 6.69 2.77 4.99 0 8.1-3.24 3.1-3.24 3.1-7.96v-41.85h26.87v71.28Z"></path><rect width="73.98" height="72.9" x="-36.99" y="-36.45" fill="none" rx="0" ry="0" transform="translate(-126.22 .81)"></rect><path fill="#fff" d="M21.24-37.755q12.15 0 18.22 6.95 6.08 6.95 6.08 19.78v46.17H18.67v-42.93q0-4.59-2.23-7.36-2.22-2.77-6.27-2.77-4.73 0-7.7 3.24-2.97 3.24-2.97 7.97v41.85h-26.86v-42.93q0-4.59-2.23-7.36-2.23-2.77-6.28-2.77-4.72 0-7.69 3.24-2.97 3.24-2.97 7.97v41.85H-73.4v-71.28h22.01l1.75 10.66q4.05-5.67 10.73-8.98 6.69-3.3 14.11-3.3 16.07 0 21.6 12.28 4.19-5.67 10.73-8.98 6.55-3.3 13.71-3.3"></path><rect width="118.94" height="72.9" x="-59.47" y="-36.45" fill="none" rx="0" ry="0" transform="translate(-13.43 -.8)"></rect><path fill="#fff" d="M108.58-37.755q14.45 0 22.28 9.45 7.83 9.45 7.83 27.94 0 18.36-7.83 27.74-7.83 9.39-22.28 9.39-12.42 0-19.98-8.1v33.07H61.74v-97.87h21.87l2.29 10.12q7.83-11.74 22.68-11.74m-8.37 19.84q-5.94 0-8.91 4.19-2.97 4.18-2.97 10.93v4.46q0 6.75 2.97 11t8.91 4.25q11.61 0 11.61-13.9v-7.16q0-13.77-11.61-13.77"></path><rect width="76.95" height="99.49" x="-38.48" y="-49.74" fill="none" rx="0" ry="0" transform="translate(100.72 12.49)"></rect><path fill="#fff" d="M188.5-37.755q19.58 0 29.9 9.18 10.33 9.18 10.33 28.08v4.59h-53.46q0 7.69 3.44 11.61 3.45 3.91 10.87 3.91 6.75 0 9.92-2.83 3.18-2.84 3.18-7.56h26.05q0 12.96-9.85 20.25-9.86 7.29-28.76 7.29-19.84 0-30.78-9.25-10.93-9.25-10.93-28.01 0-18.36 10.66-27.81 10.67-9.45 29.43-9.45m1.08 17.14q-12.69 0-14.17 12.02h26.19q0-5.54-3.18-8.78-3.17-3.24-8.84-3.24"></path><rect width="80.32" height="74.52" x="-40.16" y="-37.26" fill="none" rx="0" ry="0" transform="translate(189.07)"></rect><path fill="#fff" d="M242.64 35.145v-97.88h26.86v97.88Z"></path><rect width="26.86" height="97.88" x="-13.43" y="-48.94" fill="none" rx="0" ry="0" transform="translate(256.57 -13.3)"></rect></g></g></svg></svg>